# xmcd CD database file
#
# Track frame offsets:
#	150
#	12072
#	23195
#	34995
#	45852
#	57272
#	69635
#	81417
#	96350
#	106554
#	118157
#	131015
#	141710
#	153855
#	167067
#	178432
#	190710
#	201777
#	211745
#	222735
#
# Disc length: 3140 seconds
#
# Revision: 0
# Processed by: cddbd v1.4PL0 Copyright (c) Steve Scherf et al.
# Submitted via: CDex 1.40Beta8
#
DISCID=240c4214
DTITLE=Kitty Wells - 20 Greatest Hits
DYEAR=1995
DGENRE=Country
TTITLE0=It Wasn't God Who Made Honky Tonk Angels
TTITLE1=Heartbreak U.S.A.
TTITLE2=Amigo's Guitar
TTITLE3=Mommy For A Day
TTITLE4=This White Circle On My Finger
TTITLE5=Release Me
TTITLE6=I Gave My Wedding Dress Away
TTITLE7=Rank Stranger
TTITLE8=Will Your Lawyer Talk To Good
TTITLE9=She's No Angel
TTITLE10=Makin' Believe
TTITLE11=Searching
TTITLE12=Lonely Side Of Town
TTITLE13=How Far Is Heaven
TTITLE14=Left To Right
TTITLE15=Fraulein
TTITLE16=Meanwhile Down At Joe's
TTITLE17=Whose Shoulder Will You Cry On
TTITLE18=Paying For That Backstreet Affair
TTITLE19=I Don't Claim To Be An Angel
EXTD=YEAR: 1995 ID3G: 2
EXTT0=
EXTT1=
EXTT2=
EXTT3=
EXTT4=
EXTT5=
EXTT6=
EXTT7=
EXTT8=
EXTT9=
EXTT10=
EXTT11=
EXTT12=
EXTT13=
EXTT14=
EXTT15=
EXTT16=
EXTT17=
EXTT18=
EXTT19=
PLAYORDER=
